<svg xmlns="http://www.w3.org/2000/svg" width="16" height="16" viewBox="0 0 16 16" fill="none">
  <path d="M2 13.3334V8.00008C2 7.64646 2.14048 7.30732 2.39052 7.05727C2.64057 6.80722 2.97971 6.66675 3.33333 6.66675H12.6667C13.0203 6.66675 13.3594 6.80722 13.6095 7.05727C13.8595 7.30732 14 7.64646 14 8.00008V13.3334" stroke="#929292" stroke-width="1.5" stroke-linecap="round" stroke-linejoin="round"/>
  <path d="M3.3335 6.66675V4.00008C3.3335 3.64646 3.47397 3.30732 3.72402 3.05727C3.97407 2.80722 4.31321 2.66675 4.66683 2.66675H11.3335C11.6871 2.66675 12.0263 2.80722 12.2763 3.05727C12.5264 3.30732 12.6668 3.64646 12.6668 4.00008V6.66675" stroke="#929292" stroke-width="1.5" stroke-linecap="round" stroke-linejoin="round"/>
  <path d="M2 12H14" stroke="#929292" stroke-width="1.5" stroke-linecap="round" stroke-linejoin="round"/>
</svg>