<svg width="32" height="32" viewBox="0 0 32 32" fill="none" xmlns="http://www.w3.org/2000/svg">
<path d="M19.2398 25.0935C18.9865 25.0935 18.7332 25.0002 18.5332 24.8002C18.1465 24.4135 18.1465 23.7735 18.5332 23.3868L25.9198 16.0002L18.5332 8.61349C18.1465 8.22682 18.1465 7.58682 18.5332 7.20016C18.9198 6.81349 19.5598 6.81349 19.9465 7.20016L28.0398 15.2935C28.4265 15.6802 28.4265 16.3202 28.0398 16.7068L19.9465 24.8002C19.7465 25.0002 19.4932 25.0935 19.2398 25.0935Z" fill="#0D0D0D"/>
<path d="M27.1065 17H4.6665C4.11984 17 3.6665 16.5467 3.6665 16C3.6665 15.4533 4.11984 15 4.6665 15H27.1065C27.6532 15 28.1065 15.4533 28.1065 16C28.1065 16.5467 27.6532 17 27.1065 17Z" fill="#0D0D0D"/>
</svg>
