<svg width="56" height="56" viewBox="0 0 56 56" fill="none" xmlns="http://www.w3.org/2000/svg">
<rect width="56" height="56" rx="28" fill="#EAF8FF"/>
<path d="M33.5865 14.6665H22.4132C17.5598 14.6665 14.6665 17.5598 14.6665 22.4132V33.5732C14.6665 38.4398 17.5598 41.3332 22.4132 41.3332H33.5732C38.4265 41.3332 41.3198 38.4398 41.3198 33.5865V22.4132C41.3332 17.5598 38.4398 14.6665 33.5865 14.6665ZM34.3732 24.9332L26.8132 32.4932C26.6265 32.6798 26.3732 32.7865 26.1065 32.7865C25.8398 32.7865 25.5865 32.6798 25.3998 32.4932L21.6265 28.7198C21.2398 28.3332 21.2398 27.6932 21.6265 27.3065C22.0132 26.9198 22.6532 26.9198 23.0398 27.3065L26.1065 30.3732L32.9598 23.5198C33.3465 23.1332 33.9865 23.1332 34.3732 23.5198C34.7598 23.9065 34.7598 24.5332 34.3732 24.9332Z" fill="#2074C2"/>
</svg>
