<svg width="30" height="40" viewBox="0 0 30 40" fill="none" xmlns="http://www.w3.org/2000/svg">
<path d="M19.1918 18.6865C20.9489 18.3122 21.1596 16.0033 21.1047 14.501C21.0605 13.2986 20.7136 12.1226 20.0666 11.108C18.8895 9.26181 17.1652 8.55347 15.6854 8.31712C13.5719 7.97953 11.4187 8.68965 9.96674 10.2621C8.87804 11.4413 8.49624 12.7539 8.40712 13.8943C8.31158 15.1227 8.57574 16.3469 9.12722 17.4484L16.7374 32.6525C17.2618 33.7005 16.8369 35.0177 15.7888 35.5421L15.7913 35.541C14.7433 36.0654 13.4539 35.6066 12.9291 34.5586L10.3656 29.4366C7.3612 31.5217 8.64026 35.1828 8.64026 35.1828C10.735 41.9225 16.9588 39.621 16.9588 39.621C20.3793 38.2261 21.0669 35.1771 21.1671 33.3715C21.2109 32.578 21.0306 31.7948 20.6748 31.0843L12.938 15.6272C12.4176 14.5877 12.8446 13.3204 13.8841 12.7999C14.9236 12.2794 16.1941 12.6976 16.7143 13.7371L19.1918 18.6865Z" fill="black"/>
<path d="M20.3551 0.995543C13.5085 -1.75401 7.223 2.06428 7.223 2.06428C-3.60625 8.29846 0.952456 20.1448 0.952456 20.1448L4.95327 28.1382C5.56214 25.6278 7.71459 24.1406 7.71459 24.1406L4.85203 18.4212C2.67356 12.2462 7.09431 7.59227 7.09431 7.59227C12.3161 2.44999 17.3764 4.07199 20.5662 6.16063C23.674 8.19544 25.5327 11.6854 25.4414 15.3985C25.3138 20.5939 21.4018 23.1014 21.4018 23.1014L23.2619 26.8178C31.5719 20.8242 29.8091 12.8301 27.894 8.39471C26.4439 5.03592 23.7503 2.35909 20.3551 0.995543Z" fill="black"/>
</svg>
